<svg aria-hidden="true" style="position: absolute; width: 0; height: 0; overflow: hidden;" version="1.1" xmlns="http://www.w3.org/2000/svg" xmlns:xlink="http://www.w3.org/1999/xlink">
<defs>
<symbol id="icon-sample-logo" viewBox="0 0 123 32">
<path d="M38.092 31.656c-0.341 0-0.616-0.104-0.825-0.313-0.19-0.19-0.284-0.455-0.284-0.796v-13.426c0.019-1.479 0.37-2.806 1.052-3.982 0.702-1.195 1.64-2.133 2.816-2.816 1.195-0.683 2.532-1.024 4.011-1.024 1.517 0 2.873 0.351 4.068 1.052 1.195 0.683 2.133 1.621 2.816 2.816 0.702 1.195 1.053 2.55 1.053 4.068 0 1.498-0.341 2.844-1.024 4.039-0.664 1.195-1.574 2.143-2.731 2.844-1.157 0.683-2.465 1.024-3.925 1.024-1.27 0-2.427-0.265-3.47-0.796-1.024-0.55-1.849-1.27-2.475-2.162v8.363c0 0.341-0.104 0.607-0.313 0.796-0.19 0.209-0.446 0.313-0.768 0.313zM44.862 23.151c1.1 0 2.086-0.256 2.958-0.768s1.555-1.214 2.048-2.105c0.512-0.91 0.768-1.925 0.768-3.044 0-1.138-0.256-2.152-0.768-3.044-0.493-0.891-1.176-1.593-2.048-2.105-0.872-0.531-1.858-0.796-2.958-0.796-1.081 0-2.057 0.265-2.93 0.796-0.872 0.512-1.555 1.214-2.048 2.105s-0.74 1.906-0.74 3.044c0 1.119 0.247 2.133 0.74 3.044 0.493 0.891 1.176 1.593 2.048 2.105s1.849 0.768 2.93 0.768zM57.776 18.657c-0.341 0-0.616-0.104-0.825-0.313-0.19-0.209-0.285-0.474-0.285-0.796v-13.653c0-0.341 0.095-0.607 0.285-0.796 0.209-0.209 0.483-0.313 0.825-0.313 0.322 0 0.578 0.104 0.768 0.313 0.209 0.19 0.313 0.455 0.313 0.796v13.653c0 0.322-0.104 0.588-0.313 0.796-0.19 0.209-0.446 0.313-0.768 0.313zM70.008 25c-0.322 0-0.588-0.104-0.796-0.313s-0.313-0.465-0.313-0.768v-7.396c0-1.176-0.228-2.143-0.683-2.901-0.436-0.758-1.043-1.327-1.82-1.707-0.758-0.379-1.621-0.569-2.588-0.569-0.929 0-1.773 0.18-2.532 0.54-0.739 0.36-1.327 0.853-1.764 1.479s-0.654 1.337-0.654 2.133h-1.564c0.038-1.195 0.36-2.257 0.967-3.186 0.607-0.948 1.413-1.688 2.418-2.219 1.005-0.55 2.124-0.825 3.356-0.825 1.346 0 2.55 0.284 3.612 0.853 1.062 0.55 1.896 1.365 2.503 2.446 0.626 1.081 0.939 2.399 0.939 3.954v7.396c0 0.303-0.104 0.559-0.313 0.768s-0.465 0.313-0.768 0.313zM57.776 25c-0.341 0-0.616-0.095-0.825-0.284-0.19-0.209-0.285-0.474-0.285-0.796v-13.369c0-0.341 0.095-0.607 0.285-0.796 0.209-0.209 0.483-0.313 0.825-0.313 0.322 0 0.578 0.104 0.768 0.313 0.209 0.19 0.313 0.455 0.313 0.796v13.369c0 0.322-0.104 0.588-0.313 0.797-0.19 0.19-0.446 0.284-0.768 0.284zM82.573 25.142c-1.517 0-2.873-0.341-4.067-1.024s-2.133-1.621-2.816-2.816c-0.683-1.195-1.024-2.55-1.024-4.067 0-1.536 0.341-2.901 1.024-4.096s1.621-2.133 2.816-2.816c1.195-0.683 2.55-1.024 4.067-1.024s2.863 0.341 4.039 1.024c1.195 0.683 2.133 1.621 2.816 2.816s1.034 2.56 1.052 4.096c0 1.517-0.351 2.873-1.052 4.067-0.683 1.195-1.621 2.133-2.816 2.816-1.176 0.683-2.522 1.024-4.039 1.024zM82.573 23.151c1.1 0 2.086-0.256 2.958-0.768s1.555-1.214 2.048-2.105c0.493-0.891 0.74-1.906 0.74-3.044s-0.246-2.152-0.74-3.044c-0.493-0.91-1.176-1.621-2.048-2.133s-1.858-0.768-2.958-0.768c-1.1 0-2.086 0.256-2.958 0.768s-1.564 1.223-2.076 2.133c-0.493 0.891-0.74 1.906-0.74 3.044s0.246 2.152 0.74 3.044c0.512 0.891 1.204 1.593 2.076 2.105s1.858 0.768 2.958 0.768zM100.401 25c-1.005 0-1.906-0.237-2.702-0.711-0.778-0.474-1.394-1.119-1.849-1.934-0.455-0.834-0.683-1.783-0.683-2.845v-13.909c0-0.322 0.095-0.588 0.284-0.796 0.209-0.209 0.474-0.313 0.796-0.313s0.588 0.104 0.796 0.313c0.209 0.209 0.313 0.474 0.313 0.796v13.909c0 0.967 0.284 1.764 0.853 2.389 0.569 0.607 1.299 0.91 2.19 0.91h0.768c0.303 0 0.55 0.104 0.74 0.313 0.189 0.209 0.284 0.474 0.284 0.796s-0.114 0.588-0.341 0.797c-0.228 0.19-0.512 0.284-0.854 0.284h-0.597zM93.318 11.916c-0.284 0-0.522-0.085-0.711-0.256-0.19-0.19-0.284-0.417-0.284-0.683 0-0.284 0.095-0.512 0.284-0.683 0.19-0.19 0.427-0.284 0.711-0.284h7.254c0.284 0 0.521 0.095 0.711 0.284 0.189 0.171 0.284 0.398 0.284 0.683 0 0.265-0.095 0.493-0.284 0.683-0.19 0.171-0.427 0.256-0.711 0.256h-7.254zM112.414 25.142c-1.517 0-2.873-0.341-4.067-1.024-1.195-0.683-2.134-1.621-2.816-2.816-0.683-1.195-1.024-2.55-1.024-4.067 0-1.536 0.341-2.901 1.024-4.096 0.682-1.195 1.621-2.133 2.816-2.816 1.194-0.683 2.55-1.024 4.067-1.024s2.864 0.341 4.039 1.024c1.195 0.683 2.134 1.621 2.816 2.816 0.683 1.195 1.034 2.56 1.053 4.096 0 1.517-0.351 2.873-1.053 4.067-0.682 1.195-1.621 2.133-2.816 2.816-1.175 0.683-2.522 1.024-4.039 1.024zM112.414 23.151c1.1 0 2.086-0.256 2.959-0.768 0.872-0.512 1.555-1.214 2.048-2.105s0.739-1.906 0.739-3.044c0-1.138-0.246-2.152-0.739-3.044-0.493-0.91-1.176-1.621-2.048-2.133-0.873-0.512-1.859-0.768-2.959-0.768s-2.086 0.256-2.958 0.768c-0.872 0.512-1.564 1.223-2.076 2.133-0.493 0.891-0.74 1.906-0.74 3.044s0.247 2.152 0.74 3.044c0.512 0.891 1.204 1.593 2.076 2.105s1.858 0.768 2.958 0.768z"></path>
<path fill="#ccc" style="fill: var(--color2, #ccc)" d="M15.846 2.963h-15.846l6.672 6.672h15.846l-6.672-6.672zM6.672 9.635v15.846l-6.672-6.672v-15.846l6.672 6.672z"></path>
<path  d="M6.672 25.482h15.846l-6.672-6.672h-15.846l6.672 6.672zM15.846 18.809v-15.846l6.672 6.672v15.846l-6.672-6.672z"></path>
</symbol>

<symbol id="icon-facebook" viewBox="0 0 32 32">
<path d="M19 6h5v-6h-5c-3.86 0-7 3.14-7 7v3h-4v6h4v16h6v-16h5l1-6h-6v-3c0-0.542 0.458-1 1-1z"></path>
</symbol>
<symbol id="icon-dribbble" viewBox="0 0 32 32">
<path d="M16 32c-8.825 0-16-7.175-16-16s7.175-16 16-16c8.825 0 16 7.175 16 16s-7.175 16-16 16v0zM29.494 18.188c-0.469-0.15-4.231-1.269-8.512-0.581 1.788 4.912 2.512 8.912 2.656 9.744 3.063-2.075 5.25-5.356 5.856-9.163v0zM21.337 28.6c-0.206-1.2-0.994-5.375-2.913-10.363-0.031 0.012-0.063 0.019-0.087 0.031-7.713 2.688-10.481 8.031-10.725 8.531 2.319 1.806 5.231 2.887 8.387 2.887 1.894 0 3.7-0.387 5.338-1.087v0zM5.844 25.156c0.313-0.531 4.063-6.738 11.106-9.019 0.175-0.056 0.356-0.113 0.538-0.162-0.344-0.775-0.719-1.556-1.106-2.319-6.819 2.044-13.444 1.956-14.044 1.95-0.006 0.137-0.006 0.275-0.006 0.419 0 3.506 1.331 6.712 3.512 9.131v0zM2.625 13.219c0.612 0.006 6.244 0.031 12.637-1.662-2.262-4.025-4.706-7.412-5.069-7.906-3.825 1.806-6.688 5.331-7.569 9.569v0zM12.8 2.731c0.375 0.506 2.863 3.888 5.1 8 4.863-1.819 6.919-4.588 7.163-4.938-2.413-2.144-5.587-3.444-9.063-3.444-1.1 0.006-2.175 0.138-3.2 0.381v0zM26.581 7.381c-0.288 0.388-2.581 3.325-7.631 5.388 0.319 0.65 0.625 1.313 0.906 1.981 0.1 0.238 0.2 0.469 0.294 0.706 4.55-0.569 9.069 0.344 9.519 0.438-0.031-3.225-1.188-6.188-3.087-8.512v0z"></path>
</symbol>
<symbol id="icon-behance" viewBox="0 0 32 32">
<path d="M9.281 6.412c0.944 0 1.794 0.081 2.569 0.25 0.775 0.162 1.431 0.438 1.988 0.813 0.55 0.375 0.975 0.875 1.287 1.5 0.3 0.619 0.45 1.394 0.45 2.313 0 0.994-0.225 1.819-0.675 2.481-0.456 0.662-1.119 1.2-2.006 1.625 1.213 0.35 2.106 0.962 2.706 1.831 0.6 0.875 0.887 1.925 0.887 3.163 0 1-0.194 1.856-0.575 2.581-0.387 0.731-0.912 1.325-1.556 1.781-0.65 0.462-1.4 0.8-2.237 1.019-0.831 0.219-1.688 0.331-2.575 0.331h-9.544v-19.688h9.281zM8.719 14.363c0.769 0 1.406-0.181 1.906-0.55 0.5-0.363 0.738-0.963 0.738-1.787 0-0.456-0.081-0.838-0.244-1.131-0.169-0.294-0.387-0.525-0.669-0.688-0.275-0.169-0.588-0.281-0.956-0.344-0.356-0.069-0.731-0.1-1.113-0.1h-4.050v4.6h4.388zM8.956 22.744c0.425 0 0.831-0.038 1.213-0.125 0.387-0.087 0.731-0.219 1.019-0.419 0.287-0.194 0.531-0.45 0.706-0.788 0.175-0.331 0.256-0.756 0.256-1.275 0-1.012-0.287-1.738-0.856-2.175-0.569-0.431-1.325-0.644-2.262-0.644h-4.7v5.419h4.625z"></path>
<path d="M22.663 22.675c0.587 0.575 1.431 0.863 2.531 0.863 0.788 0 1.475-0.2 2.044-0.6s0.913-0.825 1.044-1.262h3.45c-0.556 1.719-1.394 2.938-2.544 3.675-1.131 0.738-2.519 1.113-4.125 1.113-1.125 0-2.131-0.181-3.038-0.538-0.906-0.363-1.663-0.869-2.3-1.531-0.619-0.663-1.106-1.45-1.45-2.375-0.337-0.919-0.512-1.938-0.512-3.038 0-1.069 0.175-2.063 0.525-2.981 0.356-0.925 0.844-1.719 1.494-2.387s1.413-1.2 2.313-1.588c0.894-0.387 1.881-0.581 2.975-0.581 1.206 0 2.262 0.231 3.169 0.706 0.9 0.469 1.644 1.1 2.225 1.887s0.994 1.694 1.25 2.706c0.256 1.012 0.344 2.069 0.275 3.175h-10.294c0 1.119 0.375 2.188 0.969 2.756zM27.156 15.188c-0.462-0.512-1.256-0.794-2.212-0.794-0.625 0-1.144 0.106-1.556 0.319-0.406 0.213-0.738 0.475-0.994 0.787-0.25 0.313-0.425 0.65-0.525 1.006-0.1 0.344-0.163 0.663-0.181 0.938h6.375c-0.094-1-0.438-1.738-0.906-2.256z"></path>
<path d="M20.887 8h7.981v1.944h-7.981v-1.944z"></path>
</symbol>
<symbol id="icon-pinterest" viewBox="0 0 32 32">
<path d="M16 0c-8.825 0-16 7.175-16 16s7.175 16 16 16 16-7.175 16-16-7.175-16-16-16zM16 29.863c-1.431 0-2.806-0.219-4.106-0.619 0.563-0.919 1.412-2.431 1.725-3.631 0.169-0.65 0.863-3.294 0.863-3.294 0.45 0.863 1.775 1.594 3.175 1.594 4.181 0 7.194-3.844 7.194-8.625 0-4.581-3.738-8.006-8.544-8.006-5.981 0-9.156 4.019-9.156 8.387 0 2.031 1.081 4.563 2.813 5.369 0.262 0.125 0.4 0.069 0.463-0.188 0.044-0.194 0.281-1.131 0.387-1.575 0.031-0.137 0.019-0.262-0.094-0.4-0.575-0.694-1.031-1.975-1.031-3.162 0-3.056 2.313-6.019 6.256-6.019 3.406 0 5.788 2.319 5.788 5.637 0 3.75-1.894 6.35-4.356 6.35-1.363 0-2.381-1.125-2.050-2.506 0.394-1.65 1.15-3.425 1.15-4.613 0-1.063-0.569-1.95-1.756-1.95-1.394 0-2.506 1.438-2.506 3.369 0 1.225 0.412 2.056 0.412 2.056s-1.375 5.806-1.625 6.887c-0.281 1.2-0.169 2.881-0.050 3.975-5.156-2.012-8.813-7.025-8.813-12.9 0-7.656 6.206-13.863 13.862-13.863s13.863 6.206 13.863 13.863c0 7.656-6.206 13.863-13.863 13.863z"></path>
</symbol>
</defs>
</svg>
